<svg xmlns="http://www.w3.org/2000/svg" width="120" height="200" viewBox="0 0 120 200">
  <defs>
    <linearGradient id="gc1" x1="0" y1="0" x2="1" y2="0">
      <stop offset="0%" stop-color="#c8860a"/>
      <stop offset="100%" stop-color="#7a4e00"/>
    </linearGradient>
  </defs>
  <!-- Base curva isometrica -->
  <polygon points="20,10 100,10 110,190 10,190" fill="url(#gc1)"/>
  <polygon points="20,10 100,10 90,30 30,30" fill="#e8a020" opacity="0.6"/>
  <!-- File posti -->
  <line x1="15" y1="40" x2="105" y2="40" stroke="rgba(0,0,0,.3)" stroke-width="1"/>
  <line x1="14" y1="60" x2="106" y2="60" stroke="rgba(0,0,0,.3)" stroke-width="1"/>
  <line x1="13" y1="80" x2="107" y2="80" stroke="rgba(0,0,0,.3)" stroke-width="1"/>
  <line x1="12" y1="100" x2="108" y2="100" stroke="rgba(0,0,0,.3)" stroke-width="1"/>
  <line x1="11" y1="120" x2="109" y2="120" stroke="rgba(0,0,0,.3)" stroke-width="1"/>
  <line x1="11" y1="140" x2="109" y2="140" stroke="rgba(0,0,0,.3)" stroke-width="1"/>
  <line x1="11" y1="160" x2="109" y2="160" stroke="rgba(0,0,0,.3)" stroke-width="1"/>
  <g fill="rgba(255,255,255,.4)">
    <rect x="15" y="41" width="8" height="4" rx="1"/><rect x="26" y="41" width="8" height="4" rx="1"/><rect x="37" y="41" width="8" height="4" rx="1"/>
    <rect x="48" y="41" width="8" height="4" rx="1"/><rect x="59" y="41" width="8" height="4" rx="1"/><rect x="70" y="41" width="8" height="4" rx="1"/>
    <rect x="81" y="41" width="8" height="4" rx="1"/><rect x="92" y="41" width="8" height="4" rx="1"/>
    <rect x="14" y="61" width="8" height="4" rx="1"/><rect x="25" y="61" width="8" height="4" rx="1"/><rect x="36" y="61" width="8" height="4" rx="1"/>
    <rect x="47" y="61" width="8" height="4" rx="1"/><rect x="58" y="61" width="8" height="4" rx="1"/><rect x="69" y="61" width="8" height="4" rx="1"/>
    <rect x="80" y="61" width="8" height="4" rx="1"/><rect x="91" y="61" width="8" height="4" rx="1"/>
    <rect x="14" y="81" width="8" height="4" rx="1"/><rect x="25" y="81" width="8" height="4" rx="1"/><rect x="36" y="81" width="8" height="4" rx="1"/>
    <rect x="47" y="81" width="8" height="4" rx="1"/><rect x="58" y="81" width="8" height="4" rx="1"/><rect x="69" y="81" width="8" height="4" rx="1"/>
    <rect x="80" y="81" width="8" height="4" rx="1"/><rect x="91" y="81" width="8" height="4" rx="1"/>
    <rect x="12" y="101" width="8" height="4" rx="1"/><rect x="23" y="101" width="8" height="4" rx="1"/><rect x="34" y="101" width="8" height="4" rx="1"/>
    <rect x="45" y="101" width="8" height="4" rx="1"/><rect x="56" y="101" width="8" height="4" rx="1"/><rect x="67" y="101" width="8" height="4" rx="1"/>
    <rect x="78" y="101" width="8" height="4" rx="1"/><rect x="89" y="101" width="8" height="4" rx="1"/>
  </g>
</svg>